<?xml version="1.0" encoding="utf-8"?>
<!-- Generator: Adobe Illustrator 26.0.1, SVG Export Plug-In . SVG Version: 6.00 Build 0)  -->
<svg version="1.1" id="Layer_1" xmlns="http://www.w3.org/2000/svg" xmlns:xlink="http://www.w3.org/1999/xlink" x="0px" y="0px"
	 viewBox="0 0 606.49 237.66" style="enable-background:new 0 0 606.49 237.66;" xml:space="preserve">
<style type="text/css">
	.st0{fill:#FFFFFF;}
</style>
<g>
	<path class="st0" d="M417.37,122.69c3.94-7.54,5.91-15.18,5.91-22.9c0-4.6-0.69-9.75-2.06-15.46c-1.38-5.7-3.31-11.58-5.78-17.66
		c-2.47-6.07-5.41-12.01-8.8-17.8c-3.39-5.8-7.19-10.94-11.41-15.45c-4.22-4.51-8.77-8.14-13.62-10.9
		c-4.85-2.76-9.85-4.14-14.98-4.14c-4.04,0-7.56,1.1-10.59,3.31c-3.02,2.21-5.54,4.88-7.56,8c0-0.55,0.05-1.52,0.14-2.9
		c0.09-1.38,0.13-2.9,0.13-4.56c0-2.21-0.18-4.28-0.55-6.2c-0.37-1.93-1.3-2.9-2.76-2.9c-1.66,0-2.9,2.35-3.73,7.04
		c-0.82,4.69-1.38,10.48-1.66,17.38c-0.27,6.9-0.41,14.16-0.41,21.8c0,7.64,0,14.49,0,20.56c0,12.32,0.37,24.52,1.1,36.57
		c0.74,12.05,2.95,23.96,6.62,35.74l2.76,3.03c-2.94-0.55-5.66-1.56-8.14-3.03c-2.48-1.47-4.46-3.59-5.93-6.35l-2.76-1.93
		c-0.41,0-0.81,0.08-1.2,0.23c1.72-1.83,2.58-3.65,2.58-5.48c0-0.36-0.19-0.73-0.55-1.1c-0.37-0.36-0.74-0.55-1.11-0.55
		c-0.92,0-2.43,0.74-4.54,2.21c-2.12,1.47-4.55,3.08-7.31,4.83c-2.76,1.75-5.85,3.36-9.25,4.83c-3.4,1.47-6.85,2.2-10.34,2.2
		c-2.03,0-3.95-0.36-5.79-1.1c-1.84-0.73-3.22-2.11-4.14-4.13c3.86-2.03,7.4-4.92,10.62-8.7c3.21-3.77,4.83-7.96,4.83-12.56
		c0-3.68-1.29-6.58-3.86-8.69c-2.57-2.12-5.61-3.17-9.11-3.17c-2.95,0-5.43,0.88-7.45,2.62c-2.03,1.75-3.63,3.86-4.83,6.34
		c-1.2,2.49-2.07,5.16-2.62,8c-0.55,2.85-0.83,5.48-0.83,7.86c0,0.49,0.01,0.97,0.04,1.46c-1.52,1.02-3.13,2.13-4.87,3.38
		c-1.92,1.37-3.82,2.71-5.65,4c-1.85,1.29-3.22,2.21-4.14,2.76c0.56-1.47,0.92-2.94,1.11-4.41c0.18-1.48,0.27-2.94,0.27-4.42
		c0-2.76-0.41-5.7-1.24-8.84c-0.83-3.12-2.02-6.07-3.58-8.83c-1.57-2.76-3.55-5.06-5.94-6.9c-2.39-1.84-5.24-2.76-8.55-2.76
		c-4.79,0-8.23,1.89-10.34,5.66c-2.12,3.77-3.64,7.68-4.56,11.72c-0.18-0.73-0.42-2.02-0.69-3.86c-0.27-1.83-0.69-3.72-1.24-5.66
		c-0.55-1.93-1.15-3.63-1.79-5.11c-0.65-1.47-1.42-2.21-2.35-2.21c-1.1,0-1.83,0.37-2.2,1.11c-0.37,0.74-0.56,1.57-0.56,2.48
		c0,2.76,0.33,5.52,0.97,8.29c0.64,2.76,1.37,5.62,2.2,8.55c0.44,1.57,0.85,3.11,1.24,4.65c-0.13,0.1-0.27,0.21-0.41,0.32
		c-1.57,1.29-3.26,2.67-5.11,4.14c-1.84,1.48-3.72,2.85-5.66,4.14c-1.93,1.28-3.72,1.93-5.38,1.93c-2.02,0-3.36-2.12-4-6.34
		c-0.65-4.24-1.57-8.92-2.76-14.08c-1.2-5.15-3.17-9.84-5.93-14.07c-2.76-4.23-7.27-6.35-13.52-6.35c-2.76,0-4.78,1.52-6.07,4.55
		c-1.29,3.04-2.21,6.54-2.76,10.49c-0.55,3.96-0.82,7.96-0.82,12.01c0,1.11,0,2.13,0,3.07c-0.27,0.2-0.54,0.41-0.83,0.65
		c-1.66,1.38-3.5,2.9-5.52,4.55c-2.03,1.65-4.19,3.17-6.49,4.55c-2.3,1.38-4.46,2.07-6.48,2.07c-2.2,0-3.96-0.78-5.25-2.34
		c-1.29-1.57-2.25-3.4-2.89-5.52c-0.65-2.11-1.1-4.32-1.38-6.62c-0.28-2.3-0.42-4.19-0.42-5.66c0-1.1,0.14-2.58,0.42-4.42
		c0.28-1.84,0.41-3.77,0.41-5.8c0-2.02-0.37-3.82-1.1-5.38c-0.74-1.56-2.21-2.35-4.42-2.35c-2.21,0-3.77,1.02-4.69,3.04
		c-0.74-0.18-1.66-0.28-2.76-0.28c-2.76,0-5.2,1.07-7.32,3.18c-2.12,2.12-3.91,4.69-5.38,7.72c-1.48,3.03-2.58,6.17-3.31,9.38
		c-0.26,1.12-0.45,2.14-0.62,3.11c-0.65,0.43-1.4,0.95-2.28,1.58c-2.67,1.93-6.07,4.09-10.21,6.49c-4.14,2.39-8.83,4.55-14.07,6.48
		c-5.24,1.93-10.63,2.89-16.14,2.89c-8.65,0-15.92-1.97-21.8-5.93c-5.89-3.96-10.72-9.07-14.49-15.32
		c-3.77-6.25-6.48-13.15-8.14-20.7c-1.66-7.54-2.48-14.9-2.48-22.08c0-5.7,0.5-12.37,1.51-20.01c1.01-7.63,2.9-14.8,5.66-21.52
		c2.76-6.71,6.58-12.42,11.45-17.11c4.87-4.69,11.08-7.04,18.62-7.04c5.52,0,9.98,0.69,13.39,2.07c3.4,1.38,6.21,3.41,8.42,6.07
		c2.21,2.67,3.95,5.79,5.24,9.38c1.28,3.58,2.66,7.59,4.14,12c0.19,0.55,0.59,1.2,1.24,1.93c0.64,0.74,1.33,1.1,2.08,1.1
		c2.02,0,3.03-1.1,3.03-3.31c0-5.14-1.01-10.02-3.03-14.62c-2.03-4.6-4.79-8.65-8.28-12.14c-3.49-3.5-7.55-6.26-12.15-8.28
		c-4.6-2.02-9.47-3.03-14.62-3.03c-9.2,0-16.98,2.48-23.32,7.45C33.51,29.7,28.41,35.95,24.54,43.5
		c-3.87,7.54-6.67,15.68-8.42,24.42c-1.75,8.73-2.62,16.79-2.62,24.15c0,8.83,0.92,17.57,2.76,26.22
		c1.84,8.66,4.92,16.47,9.24,23.46c4.33,7,9.94,12.65,16.83,16.97c6.9,4.32,15.41,6.49,25.53,6.49c1.84,0,4.46-0.33,7.87-0.97
		c3.4-0.65,7.08-1.51,11.04-2.62c3.96-1.11,7.96-2.45,12-4c4.05-1.57,7.73-3.31,11.04-5.25c2.41-1.41,4.51-2.88,6.29-4.44
		c0.28,1.52,0.71,3.01,1.31,4.44c0.64,1.57,1.52,2.86,2.62,3.87c1.1,1.01,2.48,1.51,4.14,1.51c2.94,0,5.57-1.1,7.87-3.31
		c2.3-2.2,4.28-4.32,5.93-6.34c1.47,2.58,3.31,4.96,5.52,7.17c2.21,2.21,4.87,3.31,8,3.31c1.84,0,4.32-0.73,7.45-2.21
		c3.12-1.47,6.2-3.21,9.24-5.24c2.17-1.44,4.14-2.91,5.94-4.41c0,0.63,0,1.31,0,2.06c0,1.93,0.13,3.87,0.41,5.79
		c0.28,1.94,0.78,3.59,1.53,4.97c0.72,1.38,1.84,2.08,3.31,2.08c2.21,0,3.86-1.21,4.97-3.59c1.11-2.39,1.89-5.2,2.35-8.42
		c0.45-3.22,0.73-6.49,0.82-9.8c0.09-3.31,0.14-5.97,0.14-8.01v-9.66c4.04,1.66,6.62,4.46,7.72,8.42c1.11,3.96,1.8,7.96,2.08,12.01
		c0.27,4.04,0.87,7.59,1.79,10.62c0.93,3.04,3.32,4.55,7.18,4.55c2.02,0,4.23-0.59,6.62-1.79c2.39-1.2,4.73-2.66,7.04-4.41
		c2.3-1.75,4.42-3.54,6.35-5.38c0.52-0.49,1.01-0.97,1.5-1.43c0.38,2.16,0.57,4.29,0.57,6.4c0,8.84-0.32,17.53-0.97,26.08
		c-0.64,8.55-0.96,17.15-0.96,25.81c0,1.47,0.04,3.4,0.14,5.79c0.09,2.39,0.37,4.78,0.83,7.18c0.46,2.39,1.24,4.41,2.34,6.07
		c1.11,1.65,2.67,2.48,4.69,2.48c2.02,0,3.64-0.79,4.83-2.34c1.2-1.57,2.08-3.41,2.62-5.52c0.56-2.12,0.92-4.27,1.1-6.49
		c0.19-2.21,0.28-3.96,0.28-5.24c0-7-0.5-13.9-1.51-20.69c-1.02-6.81-2.26-13.53-3.73-20.15c2.76,0,6.67-0.78,11.72-2.34
		c5.06-1.57,10.17-3.59,15.32-6.07c5.15-2.49,9.61-5.2,13.39-8.14c0.26-0.21,0.5-0.41,0.74-0.61c0.21,0.26,0.46,0.48,0.78,0.61
		c1.83,3.68,4.41,6.44,7.72,8.27c3.31,1.84,6.99,2.76,11.04,2.76c2.21,0,5.28-0.59,9.24-1.79c3.96-1.2,7.91-2.71,11.87-4.55
		c3.73-1.73,6.98-3.72,9.81-5.94c-0.19,0.39-0.29,0.81-0.29,1.25c0,2.2,1.14,4.28,3.44,6.21c2.3,1.93,5.04,3.58,8.25,4.96
		c3.21,1.38,6.43,2.48,9.63,3.31c3.2,0.83,5.73,1.24,7.56,1.24c7.52,0,15.14-1.89,22.85-5.66c7.7-3.77,14.67-8.65,20.9-14.63
		C408.32,137.01,413.42,130.24,417.37,122.69z M134.37,129.6c0,3.13-0.88,6.44-2.62,9.93c-1.75,3.5-3.91,5.98-6.49,7.46l-0.27-5.25
		c-0.18-3.49,0.36-7.18,1.65-11.04c1.28-3.86,3.5-6.72,6.62-8.56l1.1,0.55V129.6z M255.92,144.22c-0.83,2.39-2.03,4.55-3.58,6.48
		c-1.57,1.94-3.45,3.5-5.67,4.69c-2.2,1.2-4.59,1.79-7.17,1.79h-1.93c0-2.76,0.09-5.65,0.27-8.7c0.19-3.03,0.56-6.11,1.1-9.24
		c0.56-3.13,1.34-6.11,2.35-8.97c1.01-2.86,2.44-5.38,4.27-7.59c3.68,0.55,6.53,2.16,8.56,4.83c2.02,2.67,3.03,5.84,3.03,9.52
		C257.15,139.44,256.75,141.84,255.92,144.22z M288.62,136.63c-0.19-0.82-0.27-1.61-0.27-2.35c0-2.21,0.55-4.87,1.65-8
		c1.1-3.12,2.94-4.69,5.52-4.69c0.92,0,1.93,0.37,3.04,1.1c0.19,0.38,0.42,0.97,0.69,1.79c0.28,0.83,0.42,1.43,0.42,1.8
		c0,2.58-1.15,5.11-3.45,7.59c-2.31,2.48-4.65,4.19-7.04,5.11C288.99,138.25,288.8,137.46,288.62,136.63z M394.86,139.12
		c-5.35,5.06-11.31,9.15-17.93,12.28c-6.62,3.12-13.25,4.69-19.87,4.69l-3.32-0.28c2.39-0.55,3.77-2.29,4.14-5.24h0.28l-0.28-0.83
		v-5.24c0-6.25-0.38-12.56-1.15-18.91c-0.76-6.35-1.57-12.7-2.43-19.05c-0.87-6.35-1.64-12.65-2.31-18.9
		c-0.67-6.26-1.01-12.6-1.01-19.04c0-2.39,0.19-5.7,0.55-9.94c0.37-4.23,1.06-8.42,2.08-12.55c1.02-4.14,2.54-7.73,4.58-10.76
		c2.04-3.04,4.71-4.55,8.05-4.55c6.09,0,11.91,2.76,17.45,8.28c5.55,5.52,10.49,12.1,14.83,19.73c4.34,7.63,7.81,15.45,10.4,23.46
		c2.58,8,3.88,14.58,3.88,19.73c0,6.63-1.66,13.21-4.97,19.74C404.51,128.26,400.18,134.06,394.86,139.12z"/>
	<path class="st0" d="M434.05,106.69c0.92,0,1.74-0.37,2.47-1.1c0.74-0.74,1.1-1.56,1.1-2.49c0-0.55-0.41-1.24-1.24-2.07
		c-0.82-0.83-1.62-1.24-2.34-1.24c-0.74,0-1.48,0.27-2.21,0.83c-0.73,0.55-1.1,1.29-1.1,2.21c0,0.92,0.37,1.7,1.1,2.34
		C432.56,105.82,433.3,106.32,434.05,106.69z"/>
	<path class="st0" d="M559.59,142.02c0.37,2.2,0.93,4.32,1.66,6.34c0.73,2.03,1.7,3.77,2.9,5.24c1.19,1.48,2.89,2.21,5.11,2.21
		c1.46,0,3.53-0.59,6.21-1.79c2.66-1.19,5.29-2.62,7.86-4.28c2.58-1.65,4.83-3.4,6.76-5.24c1.94-1.84,2.9-3.49,2.9-4.97
		c0-1.65-0.83-2.48-2.49-2.48c-0.92,0-2.07,0.55-3.44,1.65c-1.39,1.11-2.85,2.35-4.42,3.73c-1.56,1.37-3.17,2.62-4.83,3.72
		c-1.65,1.11-3.31,1.66-4.96,1.66c-2.21,0-3.72-1.52-4.55-4.55c-0.82-3.04-1.43-6.35-1.79-9.94c-0.37-3.59-0.93-6.9-1.66-9.94
		c-0.74-3.04-2.21-4.55-4.41-4.55c-1.48,0-2.94,0.87-4.42,2.62c-1.47,1.75-2.89,3.82-4.27,6.21c-1.38,2.39-2.67,4.74-3.86,7.04
		c-1.2,2.3-2.07,4-2.63,5.1c-0.37-1.47-0.78-3.49-1.23-6.07c-0.46-2.57-1.1-5.15-1.94-7.72c-0.82-2.58-1.84-4.83-3.03-6.76
		c-1.21-1.93-2.72-2.9-4.56-2.9c-2.02,0-3.63,0.65-4.82,1.93c-1.21,1.29-2.22,2.86-3.04,4.69c-0.82,1.84-1.51,3.82-2.07,5.93
		c-0.55,2.12-1.01,3.91-1.38,5.38l-2.47-19.04l-2.76-2.21h-0.29c-0.73,0-1.33,0.28-1.78,0.83c-0.46,0.55-0.69,1.1-0.69,1.65
		c0,6.81,0.17,13.62,0.54,20.42c0.05,0.92,0.11,1.83,0.17,2.74c-0.27,0.18-0.56,0.37-0.86,0.57c-2.12,1.47-4.55,3.08-7.31,4.83
		c-2.76,1.75-5.84,3.36-9.24,4.83c-3.41,1.47-6.86,2.2-10.35,2.2c-2.02,0-3.96-0.36-5.79-1.1c-1.84-0.73-3.22-2.11-4.14-4.13
		c3.86-2.03,7.41-4.92,10.62-8.7c3.21-3.77,4.83-7.96,4.83-12.56c0-3.68-1.29-6.58-3.86-8.69c-2.57-2.12-5.61-3.17-9.1-3.17
		c-2.95,0-5.43,0.88-7.45,2.62c-2.03,1.75-3.64,3.86-4.83,6.34c-1.2,2.49-2.07,5.16-2.62,8c-0.55,2.85-0.83,5.48-0.83,7.86
		c0,0.36,0.01,0.72,0.03,1.07c-0.23,0.18-0.46,0.37-0.72,0.58c-1.75,1.47-3.72,3.03-5.94,4.69c-2.2,1.65-4.54,3.22-7.03,4.69
		c-2.47,1.47-4.92,2.21-7.31,2.21c-2.2,0-3.82-0.87-4.83-2.62c-1.01-1.75-1.66-3.91-1.94-6.49c-0.27-2.58-0.37-5.38-0.27-8.42
		c0.09-3.03,0.09-5.84,0-8.42c-0.11-2.58-0.46-4.73-1.11-6.49c-0.64-1.75-1.78-2.62-3.44-2.62c-1.1,0-1.94,0.65-2.49,1.93
		c-0.55,1.29-0.96,2.81-1.23,4.55c-0.28,1.75-0.46,3.63-0.55,5.66c-0.11,2.03-0.14,3.77-0.14,5.25c0,1.65,0,3.96,0,6.9
		s0.37,5.89,1.1,8.83c0.73,2.95,1.93,5.48,3.58,7.59c1.66,2.11,4.05,3.17,7.18,3.17c1.65,0,4.18-0.74,7.58-2.21
		c3.4-1.47,6.86-3.26,10.35-5.38c2.92-1.77,5.51-3.61,7.8-5.51c0.23,0.46,0.58,0.78,1.03,0.96c1.83,3.68,4.42,6.44,7.72,8.27
		c3.32,1.84,6.99,2.76,11.04,2.76c2.21,0,5.29-0.59,9.24-1.79c3.96-1.2,7.91-2.71,11.87-4.55c3.77-1.76,7.08-3.78,9.94-6.04
		c0.27,3.32,0.59,6.62,0.96,9.9c0.55,0.92,1.42,1.65,2.62,2.2c1.19,0.56,2.35,0.83,3.45,0.83c1.47,0,2.71-1.05,3.73-3.17
		c1.01-2.11,1.93-4.55,2.76-7.31c0.83-2.76,1.46-5.52,1.93-8.28c0.45-2.76,0.86-4.78,1.24-6.07c0.18,1.29,0.55,2.99,1.1,5.11
		c0.56,2.11,1.24,4.23,2.07,6.34c0.83,2.12,1.79,3.96,2.9,5.52c1.1,1.57,2.48,2.34,4.14,2.34c1.47,0,2.94-0.69,4.41-2.07
		c1.47-1.38,2.9-2.99,4.29-4.83c1.38-1.84,2.66-3.73,3.86-5.66c1.18-1.93,2.06-3.45,2.62-4.55
		C558.86,137.97,559.22,139.81,559.59,142.02z M475.15,136.63c-0.19-0.82-0.27-1.61-0.27-2.35c0-2.21,0.54-4.87,1.65-8
		c1.11-3.12,2.94-4.69,5.52-4.69c0.92,0,1.93,0.37,3.04,1.1c0.18,0.38,0.41,0.97,0.69,1.79c0.27,0.83,0.41,1.43,0.41,1.8
		c0,2.58-1.15,5.11-3.45,7.59c-2.31,2.48-4.65,4.19-7.04,5.11C475.52,138.25,475.33,137.46,475.15,136.63z"/>
	<path class="st0" d="M359.13,177.86c-4.11,0-6.99,1.39-9.55,4.16l1.49,1.85c2.25-2.57,4.67-3.65,7.8-3.65c3.65,0,6.63,2,6.63,5.7
		v5.04c-2.16-2.41-4.99-3.54-8.42-3.54c-4.32,0-8.69,2.82-8.69,8.22c0,5.34,4.42,8.27,8.69,8.27c3.44,0,6.21-1.13,8.42-3.55v2.93
		h2.67v-17.46C368.17,180.27,364.16,177.86,359.13,177.86z M365.5,198.41c-1.75,2.26-4.52,3.39-7.5,3.39
		c-4.06,0-6.78-2.62-6.78-6.11c0-3.54,2.72-6.16,6.78-6.16c2.98,0,5.75,1.13,7.5,3.44V198.41z"/>
	<path class="st0" d="M387.79,177.86c-3.7,0-6.87,2-8.63,4.52v-3.91h-2.67v34.27h2.67v-13.46c2,2.83,5.13,4.63,8.63,4.63
		c6.62,0,11.1-5.14,11.1-13.05C398.89,182.9,394.41,177.86,387.79,177.86z M387.33,201.49c-3.45,0-6.74-2.15-8.17-4.52v-12.28
		c1.44-2.36,4.73-4.42,8.17-4.42c5.54,0,8.67,4.57,8.67,10.59C396.01,196.87,392.87,201.49,387.33,201.49z"/>
	<path class="st0" d="M415.01,177.86c-4.1,0-6.99,1.39-9.55,4.16l1.48,1.85c2.27-2.57,4.68-3.65,7.82-3.65c3.64,0,6.62,2,6.62,5.7
		v5.04c-2.15-2.41-4.98-3.54-8.42-3.54c-4.31,0-8.68,2.82-8.68,8.22c0,5.34,4.42,8.27,8.68,8.27c3.45,0,6.22-1.13,8.42-3.55v2.93
		h2.68v-17.46C424.05,180.27,420.05,177.86,415.01,177.86z M421.37,198.41c-1.74,2.26-4.51,3.39-7.5,3.39
		c-4.06,0-6.78-2.62-6.78-6.11c0-3.54,2.72-6.16,6.78-6.16c2.98,0,5.75,1.13,7.5,3.44V198.41z"/>
	<path class="st0" d="M435.04,182.74v-4.26h-2.67v24.82h2.67v-18.08c1.13-2.16,4.52-4.42,7.04-4.42c0.51,0,0.87,0,1.33,0.1v-2.93
		C439.97,177.96,437.15,179.97,435.04,182.74z"/>
	<path class="st0" d="M454.46,201.49c-1.75,0-2.57-1.39-2.57-3.39v-17.27h5.02v-2.37h-5.02v-6.78h-2.73v6.78h-4.1v2.37h4.1v17.67
		c0,3.39,1.6,5.4,4.88,5.4c2.06,0,3.23-0.62,4.22-1.55l-1.03-2.05C456.66,200.93,455.64,201.49,454.46,201.49z"/>
	<path class="st0" d="M488.2,177.86c-3.49,0-6.84,2.37-8.22,4.68c-0.62-2.42-2.68-4.68-6.52-4.68c-3.6,0-6.98,2.78-8.01,4.37v-3.75
		h-2.68v24.82h2.68v-18.75c1.48-2.26,4.47-4.26,7.14-4.26c3.49,0,4.94,2.16,4.94,5.65v17.36h2.72v-18.8
		c1.39-2.26,4.43-4.21,7.09-4.21c3.5,0,4.99,2.16,4.99,5.65v17.36h2.67v-17.88C494.98,180.43,492.78,177.86,488.2,177.86z"/>
	<path class="st0" d="M513.83,177.86c-6.88,0-11.91,5.81-11.91,13c0,7.65,5.13,13.05,12.37,13.05c4.11,0,7.25-1.44,9.7-4.01
		l-1.38-1.75c-2.1,2.26-4.99,3.44-8.12,3.44c-5.86,0-9.45-4.47-9.71-9.86h20.75v-0.72C525.54,183.82,521.38,177.86,513.83,177.86z
		 M504.79,189.62c0.2-4.32,3.13-9.45,8.99-9.45c6.22,0,9,5.24,9.04,9.45H504.79z"/>
	<path class="st0" d="M544.02,177.86c-3.59,0-7.14,2.21-8.94,4.37v-3.75h-2.67v24.82h2.67v-18.75c1.6-2.26,4.88-4.26,8.07-4.26
		c3.59,0,6.01,1.44,6.01,6.22v16.8h2.67v-17.36C551.84,180.32,549.06,177.86,544.02,177.86z"/>
	<path class="st0" d="M565.96,201.49c-1.74,0-2.57-1.39-2.57-3.39v-17.27h5.03v-2.37h-5.03v-6.78h-2.72v6.78h-4.12v2.37h4.12v17.67
		c0,3.39,1.59,5.4,4.88,5.4c2.05,0,3.23-0.62,4.21-1.55l-1.03-2.05C568.16,200.93,567.14,201.49,565.96,201.49z"/>
	<path class="st0" d="M575.35,184.64c0-2.57,2.32-4.52,6.17-4.52c3.29,0,5.96,1.34,7.39,3.29l1.49-1.9c-1.8-2-4.62-3.65-8.89-3.65
		c-5.61,0-8.84,3.09-8.84,6.88c0,8.94,15.67,5.09,15.67,11.87c0,2.88-2.47,5.03-6.62,5.03c-3.5,0-6.42-1.64-8.02-3.65l-1.59,1.95
		c2.46,2.77,5.55,3.96,9.56,3.96c6.21,0,9.29-3.29,9.29-7.29C590.97,187.06,575.35,190.86,575.35,184.64z"/>
</g>
</svg>
